<svg viewBox="0 0 720 684" xmlns="http://www.w3.org/2000/svg" font-family="-apple-system, 'Helvetica Neue', Arial, sans-serif">
<text x="44" y="44" font-size="30" font-weight="700" fill="#3a2c12">Where a fossil could be hiding</text>
<text x="44" y="76" font-size="17" fill="#6a5a3a">How many 4-tile fossils could still pass through each covered tile:</text>
<rect x="44" y="98" width="56" height="56" rx="8" fill="#f7edd6" stroke="#e8d8b8" stroke-width="1.5"/>
<text x="72.0" y="133.0" text-anchor="middle" font-size="21" font-weight="600" fill="#5a3d12">3</text>
<rect x="105" y="98" width="56" height="56" rx="8" fill="#f4d9a8" stroke="#e8d8b8" stroke-width="1.5"/>
<text x="133.0" y="133.0" text-anchor="middle" font-size="21" font-weight="600" fill="#5a3d12">5</text>
<rect x="166" y="98" width="56" height="56" rx="8" fill="#f1cd90" stroke="#e8d8b8" stroke-width="1.5"/>
<text x="194.0" y="133.0" text-anchor="middle" font-size="21" font-weight="600" fill="#5a3d12">6</text>
<rect x="227" y="98" width="56" height="56" rx="8" fill="#edbf79" stroke="#e8d8b8" stroke-width="1.5"/>
<text x="255.0" y="133.0" text-anchor="middle" font-size="21" font-weight="600" fill="#5a3d12">7</text>
<rect x="288" y="98" width="56" height="56" rx="8" fill="#edbf79" stroke="#e8d8b8" stroke-width="1.5"/>
<text x="316.0" y="133.0" text-anchor="middle" font-size="21" font-weight="600" fill="#5a3d12">7</text>
<rect x="349" y="98" width="56" height="56" rx="8" fill="#edbf79" stroke="#e8d8b8" stroke-width="1.5"/>
<text x="377.0" y="133.0" text-anchor="middle" font-size="21" font-weight="600" fill="#5a3d12">7</text>
<rect x="410" y="98" width="56" height="56" rx="8" fill="#edbf79" stroke="#e8d8b8" stroke-width="1.5"/>
<text x="438.0" y="133.0" text-anchor="middle" font-size="21" font-weight="600" fill="#5a3d12">7</text>
<rect x="471" y="98" width="56" height="56" rx="8" fill="#f1cd90" stroke="#e8d8b8" stroke-width="1.5"/>
<text x="499.0" y="133.0" text-anchor="middle" font-size="21" font-weight="600" fill="#5a3d12">6</text>
<rect x="532" y="98" width="56" height="56" rx="8" fill="#f4d9a8" stroke="#e8d8b8" stroke-width="1.5"/>
<text x="560.0" y="133.0" text-anchor="middle" font-size="21" font-weight="600" fill="#5a3d12">5</text>
<rect x="593" y="98" width="56" height="56" rx="8" fill="#f7edd6" stroke="#e8d8b8" stroke-width="1.5"/>
<text x="621.0" y="133.0" text-anchor="middle" font-size="21" font-weight="600" fill="#5a3d12">3</text>
<rect x="44" y="159" width="56" height="56" rx="8" fill="#f4d9a8" stroke="#e8d8b8" stroke-width="1.5"/>
<text x="72.0" y="194.0" text-anchor="middle" font-size="21" font-weight="600" fill="#5a3d12">5</text>
<rect x="105" y="159" width="56" height="56" rx="8" fill="#e8b063" stroke="#e8d8b8" stroke-width="1.5"/>
<text x="133.0" y="194.0" text-anchor="middle" font-size="21" font-weight="600" fill="#5a3d12">8</text>
<rect x="166" y="159" width="56" height="56" rx="8" fill="#e29f4f" stroke="#e8d8b8" stroke-width="1.5"/>
<text x="194.0" y="194.0" text-anchor="middle" font-size="21" font-weight="600" fill="#5a3d12">9</text>
<rect x="227" y="159" width="56" height="56" rx="8" fill="#db8d3d" stroke="#e8d8b8" stroke-width="1.5"/>
<text x="255.0" y="194.0" text-anchor="middle" font-size="21" font-weight="600" fill="#fff5ec">10</text>
<rect x="288" y="159" width="56" height="56" rx="8" fill="#db8d3d" stroke="#e8d8b8" stroke-width="1.5"/>
<text x="316.0" y="194.0" text-anchor="middle" font-size="21" font-weight="600" fill="#fff5ec">10</text>
<rect x="349" y="159" width="56" height="56" rx="8" fill="#db8d3d" stroke="#e8d8b8" stroke-width="1.5"/>
<text x="377.0" y="194.0" text-anchor="middle" font-size="21" font-weight="600" fill="#fff5ec">10</text>
<rect x="410" y="159" width="56" height="56" rx="8" fill="#db8d3d" stroke="#e8d8b8" stroke-width="1.5"/>
<text x="438.0" y="194.0" text-anchor="middle" font-size="21" font-weight="600" fill="#fff5ec">10</text>
<rect x="471" y="159" width="56" height="56" rx="8" fill="#e29f4f" stroke="#e8d8b8" stroke-width="1.5"/>
<text x="499.0" y="194.0" text-anchor="middle" font-size="21" font-weight="600" fill="#5a3d12">9</text>
<rect x="532" y="159" width="56" height="56" rx="8" fill="#e8b063" stroke="#e8d8b8" stroke-width="1.5"/>
<text x="560.0" y="194.0" text-anchor="middle" font-size="21" font-weight="600" fill="#5a3d12">8</text>
<rect x="593" y="159" width="56" height="56" rx="8" fill="#f4d9a8" stroke="#e8d8b8" stroke-width="1.5"/>
<text x="621.0" y="194.0" text-anchor="middle" font-size="21" font-weight="600" fill="#5a3d12">5</text>
<rect x="44" y="220" width="56" height="56" rx="8" fill="#f1cd90" stroke="#e8d8b8" stroke-width="1.5"/>
<text x="72.0" y="255.0" text-anchor="middle" font-size="21" font-weight="600" fill="#5a3d12">6</text>
<rect x="105" y="220" width="56" height="56" rx="8" fill="#e29f4f" stroke="#e8d8b8" stroke-width="1.5"/>
<text x="133.0" y="255.0" text-anchor="middle" font-size="21" font-weight="600" fill="#5a3d12">9</text>
<rect x="166" y="220" width="56" height="56" rx="8" fill="#db8d3d" stroke="#e8d8b8" stroke-width="1.5"/>
<text x="194.0" y="255.0" text-anchor="middle" font-size="21" font-weight="600" fill="#fff5ec">10</text>
<rect x="227" y="220" width="56" height="56" rx="8" fill="#d27a2d" stroke="#e8d8b8" stroke-width="1.5"/>
<text x="255.0" y="255.0" text-anchor="middle" font-size="21" font-weight="600" fill="#fff5ec">11</text>
<rect x="288" y="220" width="56" height="56" rx="8" fill="#d27a2d" stroke="#e8d8b8" stroke-width="1.5"/>
<text x="316.0" y="255.0" text-anchor="middle" font-size="21" font-weight="600" fill="#fff5ec">11</text>
<rect x="349" y="220" width="56" height="56" rx="8" fill="#d27a2d" stroke="#e8d8b8" stroke-width="1.5"/>
<text x="377.0" y="255.0" text-anchor="middle" font-size="21" font-weight="600" fill="#fff5ec">11</text>
<rect x="410" y="220" width="56" height="56" rx="8" fill="#d27a2d" stroke="#e8d8b8" stroke-width="1.5"/>
<text x="438.0" y="255.0" text-anchor="middle" font-size="21" font-weight="600" fill="#fff5ec">11</text>
<rect x="471" y="220" width="56" height="56" rx="8" fill="#db8d3d" stroke="#e8d8b8" stroke-width="1.5"/>
<text x="499.0" y="255.0" text-anchor="middle" font-size="21" font-weight="600" fill="#fff5ec">10</text>
<rect x="532" y="220" width="56" height="56" rx="8" fill="#e29f4f" stroke="#e8d8b8" stroke-width="1.5"/>
<text x="560.0" y="255.0" text-anchor="middle" font-size="21" font-weight="600" fill="#5a3d12">9</text>
<rect x="593" y="220" width="56" height="56" rx="8" fill="#f1cd90" stroke="#e8d8b8" stroke-width="1.5"/>
<text x="621.0" y="255.0" text-anchor="middle" font-size="21" font-weight="600" fill="#5a3d12">6</text>
<rect x="44" y="281" width="56" height="56" rx="8" fill="#edbf79" stroke="#e8d8b8" stroke-width="1.5"/>
<text x="72.0" y="316.0" text-anchor="middle" font-size="21" font-weight="600" fill="#5a3d12">7</text>
<rect x="105" y="281" width="56" height="56" rx="8" fill="#db8d3d" stroke="#e8d8b8" stroke-width="1.5"/>
<text x="133.0" y="316.0" text-anchor="middle" font-size="21" font-weight="600" fill="#fff5ec">10</text>
<rect x="166" y="281" width="56" height="56" rx="8" fill="#d27a2d" stroke="#e8d8b8" stroke-width="1.5"/>
<text x="194.0" y="316.0" text-anchor="middle" font-size="21" font-weight="600" fill="#fff5ec">11</text>
<rect x="227" y="281" width="56" height="56" rx="8" fill="#c8661f" stroke="#e8d8b8" stroke-width="1.5"/>
<text x="255.0" y="316.0" text-anchor="middle" font-size="21" font-weight="600" fill="#fff5ec">12</text>
<rect x="288" y="281" width="56" height="56" rx="8" fill="#c8661f" stroke="#e8d8b8" stroke-width="1.5"/>
<text x="316.0" y="316.0" text-anchor="middle" font-size="21" font-weight="600" fill="#fff5ec">12</text>
<rect x="349" y="281" width="56" height="56" rx="8" fill="#c8661f" stroke="#e8d8b8" stroke-width="1.5"/>
<text x="377.0" y="316.0" text-anchor="middle" font-size="21" font-weight="600" fill="#fff5ec">12</text>
<rect x="410" y="281" width="56" height="56" rx="8" fill="#c8661f" stroke="#e8d8b8" stroke-width="1.5"/>
<text x="438.0" y="316.0" text-anchor="middle" font-size="21" font-weight="600" fill="#fff5ec">12</text>
<rect x="471" y="281" width="56" height="56" rx="8" fill="#d27a2d" stroke="#e8d8b8" stroke-width="1.5"/>
<text x="499.0" y="316.0" text-anchor="middle" font-size="21" font-weight="600" fill="#fff5ec">11</text>
<rect x="532" y="281" width="56" height="56" rx="8" fill="#db8d3d" stroke="#e8d8b8" stroke-width="1.5"/>
<text x="560.0" y="316.0" text-anchor="middle" font-size="21" font-weight="600" fill="#fff5ec">10</text>
<rect x="593" y="281" width="56" height="56" rx="8" fill="#edbf79" stroke="#e8d8b8" stroke-width="1.5"/>
<text x="621.0" y="316.0" text-anchor="middle" font-size="21" font-weight="600" fill="#5a3d12">7</text>
<rect x="44" y="342" width="56" height="56" rx="8" fill="#edbf79" stroke="#e8d8b8" stroke-width="1.5"/>
<text x="72.0" y="377.0" text-anchor="middle" font-size="21" font-weight="600" fill="#5a3d12">7</text>
<rect x="105" y="342" width="56" height="56" rx="8" fill="#db8d3d" stroke="#e8d8b8" stroke-width="1.5"/>
<text x="133.0" y="377.0" text-anchor="middle" font-size="21" font-weight="600" fill="#fff5ec">10</text>
<rect x="166" y="342" width="56" height="56" rx="8" fill="#d27a2d" stroke="#e8d8b8" stroke-width="1.5"/>
<text x="194.0" y="377.0" text-anchor="middle" font-size="21" font-weight="600" fill="#fff5ec">11</text>
<rect x="227" y="342" width="56" height="56" rx="8" fill="#c8661f" stroke="#e8d8b8" stroke-width="1.5"/>
<text x="255.0" y="377.0" text-anchor="middle" font-size="21" font-weight="600" fill="#fff5ec">12</text>
<rect x="288" y="342" width="56" height="56" rx="8" fill="#c8661f" stroke="#e8d8b8" stroke-width="1.5"/>
<text x="316.0" y="377.0" text-anchor="middle" font-size="21" font-weight="600" fill="#fff5ec">12</text>
<rect x="349" y="342" width="56" height="56" rx="8" fill="#c8661f" stroke="#e8d8b8" stroke-width="1.5"/>
<text x="377.0" y="377.0" text-anchor="middle" font-size="21" font-weight="600" fill="#fff5ec">12</text>
<rect x="410" y="342" width="56" height="56" rx="8" fill="#c8661f" stroke="#e8d8b8" stroke-width="1.5"/>
<text x="438.0" y="377.0" text-anchor="middle" font-size="21" font-weight="600" fill="#fff5ec">12</text>
<rect x="471" y="342" width="56" height="56" rx="8" fill="#d27a2d" stroke="#e8d8b8" stroke-width="1.5"/>
<text x="499.0" y="377.0" text-anchor="middle" font-size="21" font-weight="600" fill="#fff5ec">11</text>
<rect x="532" y="342" width="56" height="56" rx="8" fill="#db8d3d" stroke="#e8d8b8" stroke-width="1.5"/>
<text x="560.0" y="377.0" text-anchor="middle" font-size="21" font-weight="600" fill="#fff5ec">10</text>
<rect x="593" y="342" width="56" height="56" rx="8" fill="#edbf79" stroke="#e8d8b8" stroke-width="1.5"/>
<text x="621.0" y="377.0" text-anchor="middle" font-size="21" font-weight="600" fill="#5a3d12">7</text>
<rect x="44" y="403" width="56" height="56" rx="8" fill="#f1cd90" stroke="#e8d8b8" stroke-width="1.5"/>
<text x="72.0" y="438.0" text-anchor="middle" font-size="21" font-weight="600" fill="#5a3d12">6</text>
<rect x="105" y="403" width="56" height="56" rx="8" fill="#e29f4f" stroke="#e8d8b8" stroke-width="1.5"/>
<text x="133.0" y="438.0" text-anchor="middle" font-size="21" font-weight="600" fill="#5a3d12">9</text>
<rect x="166" y="403" width="56" height="56" rx="8" fill="#db8d3d" stroke="#e8d8b8" stroke-width="1.5"/>
<text x="194.0" y="438.0" text-anchor="middle" font-size="21" font-weight="600" fill="#fff5ec">10</text>
<rect x="227" y="403" width="56" height="56" rx="8" fill="#d27a2d" stroke="#e8d8b8" stroke-width="1.5"/>
<text x="255.0" y="438.0" text-anchor="middle" font-size="21" font-weight="600" fill="#fff5ec">11</text>
<rect x="288" y="403" width="56" height="56" rx="8" fill="#d27a2d" stroke="#e8d8b8" stroke-width="1.5"/>
<text x="316.0" y="438.0" text-anchor="middle" font-size="21" font-weight="600" fill="#fff5ec">11</text>
<rect x="349" y="403" width="56" height="56" rx="8" fill="#d27a2d" stroke="#e8d8b8" stroke-width="1.5"/>
<text x="377.0" y="438.0" text-anchor="middle" font-size="21" font-weight="600" fill="#fff5ec">11</text>
<rect x="410" y="403" width="56" height="56" rx="8" fill="#d27a2d" stroke="#e8d8b8" stroke-width="1.5"/>
<text x="438.0" y="438.0" text-anchor="middle" font-size="21" font-weight="600" fill="#fff5ec">11</text>
<rect x="471" y="403" width="56" height="56" rx="8" fill="#db8d3d" stroke="#e8d8b8" stroke-width="1.5"/>
<text x="499.0" y="438.0" text-anchor="middle" font-size="21" font-weight="600" fill="#fff5ec">10</text>
<rect x="532" y="403" width="56" height="56" rx="8" fill="#e29f4f" stroke="#e8d8b8" stroke-width="1.5"/>
<text x="560.0" y="438.0" text-anchor="middle" font-size="21" font-weight="600" fill="#5a3d12">9</text>
<rect x="593" y="403" width="56" height="56" rx="8" fill="#f1cd90" stroke="#e8d8b8" stroke-width="1.5"/>
<text x="621.0" y="438.0" text-anchor="middle" font-size="21" font-weight="600" fill="#5a3d12">6</text>
<rect x="44" y="464" width="56" height="56" rx="8" fill="#f4d9a8" stroke="#e8d8b8" stroke-width="1.5"/>
<text x="72.0" y="499.0" text-anchor="middle" font-size="21" font-weight="600" fill="#5a3d12">5</text>
<rect x="105" y="464" width="56" height="56" rx="8" fill="#e8b063" stroke="#e8d8b8" stroke-width="1.5"/>
<text x="133.0" y="499.0" text-anchor="middle" font-size="21" font-weight="600" fill="#5a3d12">8</text>
<rect x="166" y="464" width="56" height="56" rx="8" fill="#e29f4f" stroke="#e8d8b8" stroke-width="1.5"/>
<text x="194.0" y="499.0" text-anchor="middle" font-size="21" font-weight="600" fill="#5a3d12">9</text>
<rect x="227" y="464" width="56" height="56" rx="8" fill="#db8d3d" stroke="#e8d8b8" stroke-width="1.5"/>
<text x="255.0" y="499.0" text-anchor="middle" font-size="21" font-weight="600" fill="#fff5ec">10</text>
<rect x="288" y="464" width="56" height="56" rx="8" fill="#db8d3d" stroke="#e8d8b8" stroke-width="1.5"/>
<text x="316.0" y="499.0" text-anchor="middle" font-size="21" font-weight="600" fill="#fff5ec">10</text>
<rect x="349" y="464" width="56" height="56" rx="8" fill="#db8d3d" stroke="#e8d8b8" stroke-width="1.5"/>
<text x="377.0" y="499.0" text-anchor="middle" font-size="21" font-weight="600" fill="#fff5ec">10</text>
<rect x="410" y="464" width="56" height="56" rx="8" fill="#db8d3d" stroke="#e8d8b8" stroke-width="1.5"/>
<text x="438.0" y="499.0" text-anchor="middle" font-size="21" font-weight="600" fill="#fff5ec">10</text>
<rect x="471" y="464" width="56" height="56" rx="8" fill="#e29f4f" stroke="#e8d8b8" stroke-width="1.5"/>
<text x="499.0" y="499.0" text-anchor="middle" font-size="21" font-weight="600" fill="#5a3d12">9</text>
<rect x="532" y="464" width="56" height="56" rx="8" fill="#e8b063" stroke="#e8d8b8" stroke-width="1.5"/>
<text x="560.0" y="499.0" text-anchor="middle" font-size="21" font-weight="600" fill="#5a3d12">8</text>
<rect x="593" y="464" width="56" height="56" rx="8" fill="#f4d9a8" stroke="#e8d8b8" stroke-width="1.5"/>
<text x="621.0" y="499.0" text-anchor="middle" font-size="21" font-weight="600" fill="#5a3d12">5</text>
<rect x="44" y="525" width="56" height="56" rx="8" fill="#f7edd6" stroke="#e8d8b8" stroke-width="1.5"/>
<text x="72.0" y="560.0" text-anchor="middle" font-size="21" font-weight="600" fill="#5a3d12">3</text>
<rect x="105" y="525" width="56" height="56" rx="8" fill="#f4d9a8" stroke="#e8d8b8" stroke-width="1.5"/>
<text x="133.0" y="560.0" text-anchor="middle" font-size="21" font-weight="600" fill="#5a3d12">5</text>
<rect x="166" y="525" width="56" height="56" rx="8" fill="#f1cd90" stroke="#e8d8b8" stroke-width="1.5"/>
<text x="194.0" y="560.0" text-anchor="middle" font-size="21" font-weight="600" fill="#5a3d12">6</text>
<rect x="227" y="525" width="56" height="56" rx="8" fill="#edbf79" stroke="#e8d8b8" stroke-width="1.5"/>
<text x="255.0" y="560.0" text-anchor="middle" font-size="21" font-weight="600" fill="#5a3d12">7</text>
<rect x="288" y="525" width="56" height="56" rx="8" fill="#edbf79" stroke="#e8d8b8" stroke-width="1.5"/>
<text x="316.0" y="560.0" text-anchor="middle" font-size="21" font-weight="600" fill="#5a3d12">7</text>
<rect x="349" y="525" width="56" height="56" rx="8" fill="#edbf79" stroke="#e8d8b8" stroke-width="1.5"/>
<text x="377.0" y="560.0" text-anchor="middle" font-size="21" font-weight="600" fill="#5a3d12">7</text>
<rect x="410" y="525" width="56" height="56" rx="8" fill="#edbf79" stroke="#e8d8b8" stroke-width="1.5"/>
<text x="438.0" y="560.0" text-anchor="middle" font-size="21" font-weight="600" fill="#5a3d12">7</text>
<rect x="471" y="525" width="56" height="56" rx="8" fill="#f1cd90" stroke="#e8d8b8" stroke-width="1.5"/>
<text x="499.0" y="560.0" text-anchor="middle" font-size="21" font-weight="600" fill="#5a3d12">6</text>
<rect x="532" y="525" width="56" height="56" rx="8" fill="#f4d9a8" stroke="#e8d8b8" stroke-width="1.5"/>
<text x="560.0" y="560.0" text-anchor="middle" font-size="21" font-weight="600" fill="#5a3d12">5</text>
<rect x="593" y="525" width="56" height="56" rx="8" fill="#f7edd6" stroke="#e8d8b8" stroke-width="1.5"/>
<text x="621.0" y="560.0" text-anchor="middle" font-size="21" font-weight="600" fill="#5a3d12">3</text>
<rect x="347" y="279" width="60" height="60" rx="9" fill="none" stroke="#e24b4a" stroke-width="4"/>
<text x="377.0" y="317.0" text-anchor="middle" font-size="22" fill="#e24b4a">★</text>
<text x="44" y="616" font-size="17" fill="#4a3c22"><tspan fill="#e24b4a" font-weight="700">★</tspan>  Hit the hottest tiles — the open middle has the most fossil room.</text>
<text x="44" y="641" font-size="17" fill="#8a7a5a">Cool 3 / 5 / 7 edges &amp; corners hide little — probe them last.</text>
<text x="44" y="666" font-size="17" fill="#8a7a5a">Re-read as you dig: a tile’s value drops as nearby ground opens up.</text>
</svg>